<svg width="24" height="33" viewBox="0 0 24 33" fill="none" xmlns="http://www.w3.org/2000/svg">
<path d="M0.977767 1.04055C0.546992 2.07247 0.519496 3.09121 0.899861 3.96066C1.25731 4.7818 1.93097 5.43608 2.87043 5.87959C3.11331 5.99815 3.31953 6.09475 3.3287 6.10353C3.34245 6.10792 3.18663 6.27479 2.98499 6.47678C2.38924 7.06519 2.11886 7.46918 1.77058 8.30789C1.56435 8.80848 1.55977 8.81287 1.3673 8.87434C1.10608 8.95338 1.03276 9.07194 1.03734 9.43202C1.03734 9.77013 1.11983 9.93261 1.29397 9.93261C1.39021 9.93261 1.40854 9.95017 1.39021 10.0292C1.30314 10.42 1.27106 10.6352 1.22523 11.1182C1.10608 12.3653 1.40854 13.8539 1.95847 14.776C2.0822 14.9868 2.1876 15.1756 2.1876 15.1932C2.1876 15.2108 2.07762 15.3557 1.94014 15.5225C1.31231 16.2734 0.780711 17.2263 0.469086 18.144C-0.264147 20.3177 -0.135832 22.5967 0.840286 24.5463C1.30772 25.4904 1.9768 26.3423 2.64129 26.8385C2.87959 27.0185 2.96208 27.1107 2.96666 27.1898C2.97125 27.2513 3.01707 27.7431 3.07207 28.2876L3.17289 29.2756L2.56339 29.2975C1.95388 29.3195 1.9493 29.3195 1.83473 29.4468C1.72475 29.5742 1.72017 29.5917 1.7385 30.1275C1.75225 30.6412 1.76141 30.7027 1.89889 30.9749C2.15552 31.4975 2.65504 31.8707 3.23704 31.9761C3.36994 31.9981 4.03444 32.02 4.70809 32.02H5.93168L5.96376 32.1957C6.02333 32.5689 6.43578 32.8192 6.82531 32.7182C7.07736 32.6568 7.31107 32.4196 7.34774 32.1913L7.37981 32.02H7.6227H7.87016V32.1606C7.87016 32.4328 8.0993 32.6831 8.40634 32.7446C8.78671 32.8192 9.24498 32.4855 9.24498 32.1298V32.02H11.7609H14.2722L14.3043 32.1957C14.3868 32.7051 15.0925 32.9246 15.4408 32.5514C15.5645 32.4196 15.6791 32.1254 15.6333 32.0552C15.6195 32.0376 15.7341 32.02 15.8853 32.02C16.1603 32.02 16.1649 32.02 16.1649 32.1474C16.1649 32.2923 16.3161 32.5206 16.4948 32.6524C16.669 32.7709 17.0356 32.7709 17.2097 32.6524C17.3885 32.5206 17.5397 32.2923 17.5397 32.1474V32.02H18.7724C19.4461 32.02 20.1152 31.9981 20.2481 31.9761C20.853 31.8663 21.3617 31.4843 21.632 30.931C21.7649 30.6632 21.7787 30.5885 21.7924 30.1011L21.8108 29.5654L21.6733 29.4293L21.5358 29.2975H20.9584C20.5276 29.2975 20.381 29.2844 20.381 29.2404C20.381 29.2141 20.4268 28.7179 20.4818 28.1427L20.5826 27.0932L20.9446 26.8034C23.2727 24.924 24.1525 21.3144 23.0619 18.1177C22.7548 17.2175 22.1591 16.168 21.5496 15.4654C21.435 15.3337 21.3433 15.2064 21.3433 15.1888C21.3433 15.1668 21.3846 15.0966 21.435 15.0307C21.6045 14.8024 21.8841 14.214 22.0216 13.7968C22.2232 13.1908 22.3103 12.6815 22.3378 11.9086C22.3607 11.2675 22.3286 10.8811 22.1866 10.0951C22.1591 9.95017 22.1682 9.93261 22.2507 9.93261C22.4111 9.93261 22.489 9.77013 22.489 9.42763C22.489 9.05877 22.4249 8.9446 22.1728 8.87873C21.9987 8.83482 21.9941 8.82604 21.7833 8.31228C21.49 7.59213 21.1371 7.06519 20.6101 6.54265L20.1747 6.11232L20.5551 5.93667C22.3286 5.12431 23.1856 3.57863 22.8144 1.87487C22.7227 1.44893 22.4615 0.755125 22.3974 0.755125C22.3744 0.755125 22.3332 0.838557 22.3057 0.939553C22.0674 1.86169 21.4442 2.64332 20.4589 3.26686C19.9594 3.57863 19.4461 3.82014 18.36 4.24608L17.558 4.56224L17.1914 4.3866C15.9861 3.80258 14.6297 3.37224 13.4244 3.18782C12.8103 3.09121 11.3439 3.05608 10.6977 3.12195C9.35955 3.26247 8.14513 3.60058 6.60075 4.27682L5.99125 4.54468L5.22136 4.24608C3.25996 3.48641 2.37549 2.93313 1.72475 2.0549C1.50478 1.75631 1.2619 1.23376 1.20232 0.917598C1.18399 0.829775 1.15191 0.755125 1.13358 0.755125C1.11525 0.755125 1.04193 0.882468 0.977767 1.04055ZM13.2549 4.18021C13.9285 4.28999 14.5884 4.45246 15.1246 4.63689C15.8945 4.90036 16.4169 5.14626 16.2061 5.14626C16.1282 5.14626 15.395 5.64685 15.0513 5.93228C14.4189 6.45922 13.9468 7.08715 13.7085 7.71947C13.649 7.87316 13.6123 8.00051 13.6215 8.00051C13.6352 8.00051 13.8139 7.85999 14.0202 7.68873C14.9505 6.92029 15.9449 6.46361 16.9668 6.33187C18.4241 6.14744 19.9914 6.92029 20.6513 8.14102C20.7293 8.28593 20.7797 8.42205 20.7659 8.44401C20.7522 8.46597 19.6844 8.48353 18.3508 8.48353C15.8899 8.48353 15.2254 8.51427 14.4601 8.66357C13.6215 8.82165 13.264 9.02364 12.9936 9.48032C12.8882 9.66036 12.8332 9.70866 12.7782 9.6867C12.6453 9.63401 11.3347 9.61644 10.9864 9.66475C10.7985 9.6867 10.6381 9.69549 10.629 9.67353C10.5694 9.50667 10.2853 9.1422 10.1294 9.02803C9.51994 8.58453 8.63089 8.48792 5.21219 8.48353C3.88321 8.48353 2.78336 8.47036 2.76961 8.45279C2.67795 8.36936 3.31495 7.48235 3.66324 7.20571C4.44688 6.58656 5.19386 6.32309 6.12873 6.32309C7.25608 6.32309 8.35593 6.77099 9.49244 7.68873C9.73533 7.88634 9.93239 8.02685 9.93239 8.0049C9.93239 7.86877 9.63909 7.21888 9.4512 6.93785C9.14416 6.48117 8.45217 5.84446 7.84725 5.45804C7.57229 5.28239 7.33399 5.1287 7.32482 5.11992C7.28358 5.08479 8.14054 4.7335 8.71797 4.54907C9.40537 4.3339 10.2394 4.16265 10.8948 4.09678C11.4997 4.03531 12.627 4.07922 13.2549 4.18021ZM8.71797 9.40128C9.28622 9.52423 9.51078 9.61644 9.67117 9.79648C9.86364 10.016 9.90031 10.2312 9.87281 10.9645C9.83615 12.0535 9.57035 12.7649 8.99293 13.3533C8.6034 13.7441 8.3101 13.889 7.5952 14.0208C6.90321 14.1525 5.63838 14.1657 5.14803 14.0471C3.97944 13.7661 3.41119 13.0723 3.14539 11.6012C3.00791 10.8416 2.98041 10.0907 3.07665 9.81844C3.15914 9.57692 3.32412 9.40128 3.5395 9.32663C3.63574 9.2915 4.39647 9.28272 5.96834 9.2915C8.14054 9.30467 8.28261 9.30906 8.71797 9.40128ZM19.9823 9.33541C20.3855 9.47593 20.5139 9.72622 20.5184 10.3585C20.5184 11.6452 20.1381 12.9361 19.6019 13.4499C19.0291 13.9988 17.9521 14.2359 16.5819 14.1086C15.9816 14.0515 15.2712 13.8978 15.0146 13.7705C14.7626 13.6475 14.3226 13.1864 14.1439 12.8527C13.7956 12.2072 13.6719 11.6627 13.6673 10.7669C13.6673 10.2005 13.681 10.0643 13.7452 9.94578C13.8964 9.6867 14.1714 9.5418 14.7671 9.41006C15.2208 9.30906 15.7616 9.28711 17.7688 9.28272C19.3819 9.27833 19.8448 9.2915 19.9823 9.33541ZM12.3429 10.5957C12.5674 10.6528 12.7737 10.846 12.7737 11.004C12.7737 11.1885 12.9203 11.9306 13.0303 12.3038C13.0945 12.5102 13.2503 12.8835 13.3786 13.1381C13.5802 13.5289 13.6765 13.6563 14.011 13.9768C14.3272 14.2886 14.4693 14.3896 14.7901 14.5345C15.0054 14.6355 15.3308 14.7541 15.5187 14.8024C16.5407 15.0702 18.0804 15.0219 18.9603 14.6882C20.0098 14.2886 20.7842 13.3709 21.1142 12.1326C21.2242 11.7154 21.3433 11.0699 21.3433 10.8591C21.3479 10.7186 21.3525 10.7098 21.3983 10.7889C21.435 10.846 21.4533 11.1358 21.4487 11.6232C21.4487 12.216 21.4258 12.4619 21.3479 12.8176C21.1875 13.5597 20.9309 14.1525 20.5505 14.697C19.7027 15.8914 18.0163 16.6598 16.3803 16.5984C16.1603 16.594 15.9816 16.594 15.9816 16.6071C15.9816 16.6598 16.394 16.8706 16.7148 16.9848C17.0218 17.0902 17.1318 17.1077 17.7413 17.1209C18.1125 17.1297 18.4379 17.1429 18.4562 17.156C18.5204 17.1912 18.7587 17.885 18.8274 18.2099C18.8595 18.3768 18.887 18.772 18.8916 19.0881V19.659L18.0484 19.6722C17.338 19.6809 17.2143 19.6722 17.2326 19.6195C17.3197 19.4043 17.3655 18.9696 17.3426 18.5919C17.3151 18.1616 17.2097 17.7137 17.1593 17.8367C17.1502 17.8718 17.0814 18.0518 17.0173 18.2319C16.8569 18.6666 16.6369 19.0354 16.5636 18.9915C16.5315 18.974 16.3436 18.851 16.142 18.7193C15.6654 18.4075 14.4234 17.661 14.4234 17.6874C14.4234 17.7269 14.8038 18.2538 14.9917 18.4734C15.0971 18.5919 15.3904 18.9081 15.6516 19.176L16.1236 19.659L15.3812 19.6722C14.6617 19.6809 14.6342 19.6809 14.5243 19.5843C14.3593 19.435 13.8827 18.8378 13.5436 18.3548L13.2457 17.9289L13.0899 18.1528C12.7233 18.6973 11.8984 19.5931 11.7655 19.5931C11.6372 19.5931 10.8489 18.7368 10.4456 18.1528L10.2853 17.9245L10.1707 18.1089C9.99654 18.3943 9.35955 19.2374 9.13958 19.4746L8.9471 19.6853L8.20012 19.6722L7.45314 19.659L7.98473 19.1101C8.42467 18.6578 9.1075 17.7927 9.1075 17.6918C9.1075 17.661 8.80504 17.841 7.79226 18.4822C7.32482 18.7808 6.92154 19.0091 6.89863 18.9959C6.82531 18.952 6.51368 18.2933 6.42203 17.9903L6.34412 17.7269L6.27996 17.9464C6.14707 18.4119 6.15623 19.2682 6.29829 19.6195C6.31663 19.6722 6.18373 19.6809 5.49632 19.6809C4.786 19.6809 4.66685 19.6722 4.64394 19.6107C4.60269 19.5053 4.61186 18.9125 4.66227 18.5392C4.72184 18.1001 4.86849 17.5644 5.00139 17.3229L5.10679 17.1253L5.67505 17.1297C6.32579 17.1385 6.60534 17.0814 7.15068 16.8399C7.69144 16.5984 7.68227 16.5808 6.96279 16.5852C6.26163 16.5852 5.89043 16.5281 5.30385 16.3305C3.55783 15.7465 2.50839 14.5301 2.18302 12.7078C2.09137 12.1897 2.06845 11.2895 2.13719 10.8987L2.16927 10.7011L2.20593 10.9645C2.50839 13.1777 3.38369 14.3896 4.98306 14.8024C5.8996 15.0395 7.0911 15.0395 8.00765 14.8024C9.18999 14.4994 9.99196 13.7485 10.4227 12.5453C10.5648 12.1501 10.6977 11.5749 10.7344 11.1841C10.7756 10.7977 10.8398 10.6967 11.1147 10.6176C11.3759 10.5386 12.0588 10.5298 12.3429 10.5957ZM3.17747 16.1944C3.32412 16.3085 3.60366 16.4842 3.79613 16.594L4.14442 16.7872L4.02069 17.1692C3.77322 17.8981 3.61741 18.9344 3.66782 19.4877L3.69531 19.7512L3.4341 19.8741C2.91625 20.1201 2.63671 20.4143 2.46715 20.9017C2.41216 21.051 2.37091 21.2793 2.37091 21.411C2.37091 21.6086 2.67795 24.7395 2.76044 25.385L2.78336 25.5826L2.64587 25.4553C2.41674 25.2445 1.96305 24.599 1.72475 24.1467C1.34438 23.4266 1.09234 22.5747 1.01901 21.7799C0.991515 21.5164 1.00526 21.3935 1.06484 21.2091C1.20232 20.8226 1.42687 20.3791 1.82557 19.7161C2.32508 18.8905 2.65046 18.3065 2.62296 18.2846C2.59546 18.2582 1.88514 18.7895 1.42229 19.1847C1.21607 19.3604 1.03734 19.5053 1.02818 19.5053C0.996098 19.5053 1.14274 18.952 1.30314 18.4734C1.48187 17.9377 1.79349 17.3053 2.1097 16.8443C2.3205 16.5369 2.80627 15.9924 2.87043 15.9924C2.88876 15.9924 3.02624 16.0846 3.17747 16.1944ZM20.9309 16.2427C21.6733 17.0375 22.2782 18.245 22.4661 19.3296L22.4982 19.5229L22.1407 19.2023C21.8199 18.9169 20.8851 18.2011 20.8851 18.245C20.8851 18.2758 21.38 19.132 21.7054 19.6722C22.1224 20.366 22.2645 20.6338 22.4203 21.0422C22.5348 21.3452 22.544 21.4067 22.5165 21.8106C22.4569 22.803 22.072 23.8701 21.4579 24.7527C21.1463 25.2006 20.798 25.5782 20.7934 25.4641C20.7934 25.4245 20.8667 24.7 20.9538 23.8613C21.2104 21.4067 21.2104 21.3847 21.16 21.1256C21.0546 20.5987 20.6055 20.063 20.0968 19.8566L19.854 19.76L19.8494 19.1628C19.8448 18.5041 19.7669 17.9947 19.5744 17.3756C19.5057 17.156 19.4415 16.9409 19.4323 16.8882C19.414 16.8135 19.4782 16.7564 19.7715 16.5764C19.9685 16.4534 20.2435 16.2734 20.381 16.1724C20.5184 16.0758 20.6468 15.9924 20.6605 15.9924C20.6788 15.9924 20.8026 16.1065 20.9309 16.2427ZM10.4961 19.3911C10.6152 19.5229 10.7114 19.6414 10.7114 19.6546C10.7114 19.6678 10.5144 19.6809 10.2761 19.6809C10.0378 19.6809 9.84073 19.6678 9.84073 19.6546C9.84073 19.6195 10.2257 19.154 10.2532 19.154C10.2669 19.154 10.3723 19.2638 10.4961 19.3911ZM13.649 19.558L13.7406 19.6809H13.2823C13.0257 19.6809 12.8195 19.6722 12.8195 19.659C12.8195 19.6502 12.9295 19.5272 13.0578 19.3911L13.3007 19.1452L13.429 19.2945C13.5023 19.3736 13.5986 19.4921 13.649 19.558ZM19.6706 20.6733C20.0693 20.8797 20.2435 21.1432 20.2435 21.5428C20.2435 21.6745 20.1289 22.8074 19.9914 24.0589C19.854 25.3104 19.6798 26.9263 19.6019 27.6509C19.5286 28.3754 19.4507 29.0428 19.4369 29.1307L19.4094 29.2975H11.7655H4.12151L4.09401 29.1131C4.08026 29.0077 3.98403 28.1339 3.88321 27.1678C3.78239 26.2018 3.61741 24.6298 3.51201 23.6769C3.26454 21.3584 3.26454 21.231 3.5395 20.9192C3.69531 20.7436 3.87862 20.647 4.15359 20.6031C4.26815 20.5855 7.76935 20.5723 11.9259 20.5767L19.4873 20.5811L19.6706 20.6733ZM20.8988 30.3207C20.8255 30.7159 20.5139 31.032 20.1381 31.1023C19.8448 31.155 3.58533 31.1506 3.33328 31.0935C2.9575 31.0101 2.70087 30.7378 2.62754 30.3382L2.59546 30.1758H11.7609H20.9263L20.8988 30.3207Z" fill="#028090"/>
<path d="M6.8482 9.75695C6.27536 9.82721 5.66128 10.2663 5.41381 10.7845C4.97387 11.7066 5.38174 12.7824 6.33952 13.2303C6.64198 13.3709 6.68323 13.3796 7.15983 13.3796C7.61352 13.3796 7.69142 13.3665 7.92972 13.2611C8.27343 13.1074 8.69045 12.721 8.84627 12.418C9.36411 11.4036 8.87834 10.1961 7.81057 9.84477C7.50811 9.74378 7.18274 9.71743 6.8482 9.75695ZM8.0672 10.7669C8.55755 11.1358 8.03971 11.834 7.50353 11.5266C7.20107 11.3597 7.20107 10.9601 7.50353 10.7362C7.61352 10.6484 7.93431 10.6659 8.0672 10.7669Z" fill="#028090"/>
<path d="M15.7937 9.81843C15.4637 9.94138 15.2575 10.0643 15.0467 10.2663C14.1256 11.1621 14.3822 12.6595 15.5508 13.2128C16.3344 13.5816 17.2464 13.4104 17.8238 12.7912C18.6487 11.9042 18.3508 10.4508 17.228 9.92382C16.9531 9.79208 16.8843 9.77891 16.4398 9.77013C16.119 9.76134 15.9036 9.77891 15.7937 9.81843ZM17.2464 10.8284C17.4755 11.0479 17.448 11.3422 17.1731 11.5441C17.0631 11.632 16.7423 11.6144 16.6094 11.5134C16.2382 11.2324 16.4398 10.6791 16.9118 10.6791C17.0539 10.6791 17.1226 10.7098 17.2464 10.8284Z" fill="#028090"/>
<path d="M11.4539 12.6551C10.9498 12.7561 10.6244 13.0898 10.5327 13.5904C10.4777 13.9066 10.519 14.3413 10.6381 14.6663C10.8215 15.1669 11.2935 15.8387 11.628 16.0714L11.7701 16.1724L11.9305 16.0583C12.32 15.7728 12.8378 14.9385 12.9616 14.4072C13.0441 14.0252 12.9982 13.4719 12.8562 13.204C12.792 13.0811 12.7004 12.9493 12.65 12.9098C12.4071 12.699 11.8388 12.5805 11.4539 12.6551Z" fill="#028090"/>
<path d="M12.1413 22.6757C12.0405 22.7855 10.6198 26.7726 10.6198 26.9571C10.6198 27.0185 10.6794 27.1195 10.7527 27.1942C10.9269 27.3567 11.156 27.3698 11.3118 27.2161C11.4539 27.08 12.8837 22.9919 12.8378 22.8601C12.7691 22.6757 12.627 22.5791 12.43 22.5791C12.2925 22.5791 12.2146 22.6055 12.1413 22.6757Z" fill="#028090"/>
<path d="M9.70324 23.4441C9.54284 23.5495 8.24593 24.5814 8.06721 24.7439C7.92056 24.8756 7.87932 25.0249 7.94347 25.1874C7.96639 25.2445 9.22663 26.2764 9.62991 26.5618C9.89113 26.7507 10.2577 26.6409 10.3219 26.3511C10.3677 26.1623 10.2852 26.0656 9.61158 25.5343C9.28163 25.2752 9.01583 25.0513 9.01583 25.0337C9.01583 25.0162 9.29537 24.779 9.63449 24.5112C9.97362 24.2433 10.2715 23.9842 10.299 23.9403C10.3815 23.791 10.3494 23.633 10.2119 23.4968C10.0561 23.3519 9.8728 23.33 9.70324 23.4441Z" fill="#028090"/>
<path d="M13.4107 23.4354C13.2457 23.5232 13.1724 23.7296 13.2457 23.9008C13.2778 23.9755 13.5482 24.2214 13.8965 24.5024C14.2264 24.7615 14.4968 24.9942 14.506 25.0162C14.5105 25.0425 14.231 25.2884 13.8873 25.5651C13.2732 26.0569 13.2549 26.0788 13.2411 26.2589C13.2228 26.496 13.374 26.6628 13.6169 26.6628C13.7544 26.6628 13.8873 26.575 14.6159 25.9998C15.0788 25.6353 15.4912 25.2972 15.5371 25.2489C15.5783 25.2006 15.615 25.0952 15.615 25.0162C15.615 24.8405 15.5325 24.7615 14.4968 23.9447C13.7315 23.3431 13.6582 23.308 13.4107 23.4354Z" fill="#028090"/>
</svg>
