<svg width="24" height="32" viewBox="0 0 24 32" fill="none" xmlns="http://www.w3.org/2000/svg">
<path d="M0.977767 0.285423C0.546992 1.31734 0.519496 2.33608 0.899861 3.20553C1.25731 4.02667 1.93097 4.68095 2.87043 5.12446C3.11331 5.24302 3.31953 5.33962 3.3287 5.34841C3.34245 5.3528 3.18663 5.51966 2.98499 5.72165C2.38924 6.31007 2.11886 6.71405 1.77058 7.55276C1.56435 8.05335 1.55977 8.05774 1.3673 8.11922C1.10608 8.19826 1.03276 8.31682 1.03734 8.67689C1.03734 9.01501 1.11983 9.17748 1.29397 9.17748C1.39021 9.17748 1.40854 9.19504 1.39021 9.27408C1.30314 9.6649 1.27106 9.88006 1.22523 10.3631C1.10608 11.6102 1.40854 13.0988 1.95847 14.0209C2.0822 14.2317 2.1876 14.4205 2.1876 14.4381C2.1876 14.4556 2.07762 14.6005 1.94014 14.7674C1.31231 15.5183 0.780711 16.4712 0.469086 17.3889C-0.264147 19.5625 -0.135832 21.8415 0.840286 23.7912C1.30772 24.7353 1.9768 25.5872 2.64129 26.0834C2.87959 26.2634 2.96208 26.3556 2.96666 26.4347C2.97125 26.4961 3.01707 26.9879 3.07207 27.5324L3.17289 28.5204L2.56339 28.5424C1.95388 28.5644 1.9493 28.5644 1.83473 28.6917C1.72475 28.819 1.72017 28.8366 1.7385 29.3723C1.75225 29.8861 1.76141 29.9476 1.89889 30.2198C2.15552 30.7424 2.65504 31.1156 3.23704 31.221C3.36994 31.243 4.03444 31.2649 4.70809 31.2649H5.93168L5.96376 31.4406C6.02333 31.8138 6.43578 32.0641 6.82531 31.9631C7.07736 31.9016 7.31107 31.6645 7.34774 31.4362L7.37981 31.2649H7.6227H7.87016V31.4054C7.87016 31.6777 8.0993 31.928 8.40634 31.9894C8.78671 32.0641 9.24498 31.7304 9.24498 31.3747V31.2649H11.7609H14.2722L14.3043 31.4406C14.3868 31.9499 15.0925 32.1695 15.4408 31.7962C15.5645 31.6645 15.6791 31.3703 15.6333 31.3C15.6195 31.2825 15.7341 31.2649 15.8853 31.2649C16.1603 31.2649 16.1649 31.2649 16.1649 31.3923C16.1649 31.5372 16.3161 31.7655 16.4948 31.8972C16.669 32.0158 17.0356 32.0158 17.2097 31.8972C17.3885 31.7655 17.5397 31.5372 17.5397 31.3923V31.2649H18.7724C19.4461 31.2649 20.1152 31.243 20.2481 31.221C20.853 31.1112 21.3617 30.7292 21.632 30.1759C21.7649 29.908 21.7787 29.8334 21.7924 29.346L21.8108 28.8103L21.6733 28.6741L21.5358 28.5424H20.9584C20.5276 28.5424 20.381 28.5292 20.381 28.4853C20.381 28.459 20.4268 27.9628 20.4818 27.3875L20.5826 26.3381L20.9446 26.0482C23.2727 24.1688 24.1525 20.5593 23.0619 17.3626C22.7548 16.4624 22.1591 15.4129 21.5496 14.7103C21.435 14.5786 21.3433 14.4512 21.3433 14.4337C21.3433 14.4117 21.3846 14.3415 21.435 14.2756C21.6045 14.0473 21.8841 13.4588 22.0216 13.0417C22.2232 12.4357 22.3103 11.9263 22.3378 11.1535C22.3607 10.5124 22.3286 10.126 22.1866 9.33995C22.1591 9.19504 22.1682 9.17748 22.2507 9.17748C22.4111 9.17748 22.489 9.01501 22.489 8.6725C22.489 8.30364 22.4249 8.18947 22.1728 8.12361C21.9987 8.07969 21.9941 8.07091 21.7833 7.55715C21.49 6.837 21.1371 6.31007 20.6101 5.78752L20.1747 5.35719L20.5551 5.18154C22.3286 4.36918 23.1856 2.8235 22.8144 1.11974C22.7227 0.693799 22.4615 -1.50398e-06 22.3974 -1.50398e-06C22.3744 -1.50398e-06 22.3332 0.0834301 22.3057 0.184426C22.0674 1.10657 21.4442 1.88819 20.4589 2.51173C19.9594 2.8235 19.4461 3.06501 18.36 3.49095L17.558 3.80712L17.1914 3.63147C15.9861 3.04745 14.6297 2.61712 13.4244 2.43269C12.8103 2.33608 11.3439 2.30096 10.6977 2.36682C9.35955 2.50734 8.14513 2.84546 6.60075 3.52169L5.99125 3.78955L5.22136 3.49095C3.25996 2.73129 2.37549 2.178 1.72475 1.29978C1.50478 1.00118 1.2619 0.478633 1.20232 0.162471C1.18399 0.0746479 1.15191 -1.50398e-06 1.13358 -1.50398e-06C1.11525 -1.50398e-06 1.04193 0.127342 0.977767 0.285423ZM13.2549 3.42509C13.9285 3.53487 14.5884 3.69734 15.1246 3.88177C15.8945 4.14523 16.4169 4.39114 16.2061 4.39114C16.1282 4.39114 15.395 4.89173 15.0513 5.17715C14.4189 5.70409 13.9468 6.33202 13.7085 6.96435C13.649 7.11804 13.6123 7.24538 13.6215 7.24538C13.6352 7.24538 13.8139 7.10486 14.0202 6.93361C14.9505 6.16516 15.9449 5.70848 16.9668 5.57675C18.4241 5.39232 19.9914 6.16516 20.6513 7.38589C20.7293 7.5308 20.7797 7.66693 20.7659 7.68888C20.7522 7.71084 19.6844 7.7284 18.3508 7.7284C15.8899 7.7284 15.2254 7.75914 14.4601 7.90844C13.6215 8.06652 13.264 8.26851 12.9936 8.72519C12.8882 8.90523 12.8332 8.95353 12.7782 8.93158C12.6453 8.87888 11.3347 8.86132 10.9864 8.90962C10.7985 8.93158 10.6381 8.94036 10.629 8.9184C10.5694 8.75154 10.2853 8.38707 10.1294 8.27291C9.51994 7.8294 8.63089 7.73279 5.21219 7.7284C3.88321 7.7284 2.78336 7.71523 2.76961 7.69767C2.67795 7.61423 3.31495 6.72722 3.66324 6.45058C4.44688 5.83143 5.19386 5.56796 6.12873 5.56796C7.25608 5.56796 8.35593 6.01586 9.49244 6.93361C9.73533 7.13121 9.93239 7.27173 9.93239 7.24977C9.93239 7.11364 9.63909 6.46376 9.4512 6.18272C9.14416 5.72604 8.45217 5.08933 7.84725 4.70291C7.57229 4.52726 7.33399 4.37357 7.32482 4.36479C7.28358 4.32966 8.14054 3.97837 8.71797 3.79394C9.40537 3.57878 10.2394 3.40752 10.8948 3.34166C11.4997 3.28018 12.627 3.32409 13.2549 3.42509ZM8.71797 8.64615C9.28622 8.7691 9.51078 8.86132 9.67117 9.04135C9.86364 9.26091 9.90031 9.47608 9.87281 10.2094C9.83615 11.2984 9.57035 12.0098 8.99293 12.5982C8.6034 12.989 8.3101 13.1339 7.5952 13.2656C6.90321 13.3974 5.63838 13.4105 5.14803 13.292C3.97944 13.0109 3.41119 12.3171 3.14539 10.8461C3.00791 10.0864 2.98041 9.33556 3.07665 9.06331C3.15914 8.8218 3.32412 8.64615 3.5395 8.5715C3.63574 8.53637 4.39647 8.52759 5.96834 8.53637C8.14054 8.54955 8.28261 8.55394 8.71797 8.64615ZM19.9823 8.58028C20.3855 8.7208 20.5139 8.9711 20.5184 9.60342C20.5184 10.89 20.1381 12.181 19.6019 12.6948C19.0291 13.2437 17.9521 13.4808 16.5819 13.3535C15.9816 13.2964 15.2712 13.1427 15.0146 13.0153C14.7626 12.8924 14.3226 12.4313 14.1439 12.0976C13.7956 11.4521 13.6719 10.9076 13.6673 10.0118C13.6673 9.44534 13.681 9.30921 13.7452 9.19065C13.8964 8.93158 14.1714 8.78667 14.7671 8.65493C15.2208 8.55394 15.7616 8.53198 17.7688 8.52759C19.3819 8.5232 19.8448 8.53637 19.9823 8.58028ZM12.3429 9.84054C12.5674 9.89763 12.7737 10.0908 12.7737 10.2489C12.7737 10.4333 12.9203 11.1754 13.0303 11.5487C13.0945 11.7551 13.2503 12.1283 13.3786 12.383C13.5802 12.7738 13.6765 12.9012 14.011 13.2217C14.3272 13.5335 14.4693 13.6345 14.7901 13.7794C15.0054 13.8804 15.3308 13.999 15.5187 14.0473C16.5407 14.3151 18.0804 14.2668 18.9603 13.9331C20.0098 13.5335 20.7842 12.6157 21.1142 11.3774C21.2242 10.9603 21.3433 10.3148 21.3433 10.104C21.3479 9.96349 21.3525 9.95471 21.3983 10.0338C21.435 10.0908 21.4533 10.3807 21.4487 10.8681C21.4487 11.4609 21.4258 11.7068 21.3479 12.0625C21.1875 12.8046 20.9309 13.3974 20.5505 13.9419C19.7027 15.1363 18.0163 15.9047 16.3803 15.8432C16.1603 15.8388 15.9816 15.8388 15.9816 15.852C15.9816 15.9047 16.394 16.1155 16.7148 16.2297C17.0218 16.335 17.1318 16.3526 17.7413 16.3658C18.1125 16.3746 18.4379 16.3877 18.4562 16.4009C18.5204 16.436 18.7587 17.1298 18.8274 17.4548C18.8595 17.6216 18.887 18.0168 18.8916 18.333V18.9039L18.0484 18.917C17.338 18.9258 17.2143 18.917 17.2326 18.8643C17.3197 18.6492 17.3655 18.2144 17.3426 17.8368C17.3151 17.4065 17.2097 16.9586 17.1593 17.0815C17.1502 17.1167 17.0814 17.2967 17.0173 17.4767C16.8569 17.9115 16.6369 18.2803 16.5636 18.2364C16.5315 18.2188 16.3436 18.0959 16.142 17.9642C15.6654 17.6524 14.4234 16.9059 14.4234 16.9322C14.4234 16.9718 14.8038 17.4987 14.9917 17.7182C15.0971 17.8368 15.3904 18.153 15.6516 18.4208L16.1236 18.9039L15.3812 18.917C14.6617 18.9258 14.6342 18.9258 14.5243 18.8292C14.3593 18.6799 13.8827 18.0827 13.5436 17.5997L13.2457 17.1737L13.0899 17.3977C12.7233 17.9422 11.8984 18.838 11.7655 18.838C11.6372 18.838 10.8489 17.9817 10.4456 17.3977L10.2853 17.1694L10.1707 17.3538C9.99654 17.6392 9.35955 18.4823 9.13958 18.7194L8.9471 18.9302L8.20012 18.917L7.45314 18.9039L7.98473 18.355C8.42467 17.9027 9.1075 17.0376 9.1075 16.9366C9.1075 16.9059 8.80504 17.0859 7.79226 17.727C7.32482 18.0256 6.92154 18.254 6.89863 18.2408C6.82531 18.1969 6.51368 17.5382 6.42203 17.2352L6.34412 16.9718L6.27996 17.1913C6.14707 17.6568 6.15623 18.513 6.29829 18.8643C6.31663 18.917 6.18373 18.9258 5.49632 18.9258C4.786 18.9258 4.66685 18.917 4.64394 18.8556C4.60269 18.7502 4.61186 18.1574 4.66227 17.7841C4.72184 17.345 4.86849 16.8093 5.00139 16.5678L5.10679 16.3702L5.67505 16.3746C6.32579 16.3833 6.60534 16.3263 7.15068 16.0847C7.69144 15.8432 7.68227 15.8257 6.96279 15.8301C6.26163 15.8301 5.89043 15.773 5.30385 15.5754C3.55783 14.9913 2.50839 13.775 2.18302 11.9527C2.09137 11.4345 2.06845 10.5343 2.13719 10.1435L2.16927 9.94593L2.20593 10.2094C2.50839 12.4225 3.38369 13.6345 4.98306 14.0473C5.8996 14.2844 7.0911 14.2844 8.00765 14.0473C9.18999 13.7443 9.99196 12.9934 10.4227 11.7902C10.5648 11.395 10.6977 10.8198 10.7344 10.429C10.7756 10.0425 10.8398 9.94154 11.1147 9.8625C11.3759 9.78346 12.0588 9.77467 12.3429 9.84054ZM3.17747 15.4392C3.32412 15.5534 3.60366 15.7291 3.79613 15.8388L4.14442 16.032L4.02069 16.4141C3.77322 17.143 3.61741 18.1793 3.66782 18.7326L3.69531 18.9961L3.4341 19.119C2.91625 19.3649 2.63671 19.6591 2.46715 20.1465C2.41216 20.2958 2.37091 20.5242 2.37091 20.6559C2.37091 20.8535 2.67795 23.9844 2.76044 24.6299L2.78336 24.8275L2.64587 24.7002C2.41674 24.4894 1.96305 23.8439 1.72475 23.3916C1.34438 22.6715 1.09234 21.8196 1.01901 21.0248C0.991515 20.7613 1.00526 20.6384 1.06484 20.4539C1.20232 20.0675 1.42687 19.624 1.82557 18.9609C2.32508 18.1354 2.65046 17.5514 2.62296 17.5294C2.59546 17.5031 1.88514 18.0344 1.42229 18.4296C1.21607 18.6053 1.03734 18.7502 1.02818 18.7502C0.996098 18.7502 1.14274 18.1969 1.30314 17.7182C1.48187 17.1825 1.79349 16.5502 2.1097 16.0891C2.3205 15.7818 2.80627 15.2373 2.87043 15.2373C2.88876 15.2373 3.02624 15.3295 3.17747 15.4392ZM20.9309 15.4875C21.6733 16.2823 22.2782 17.4899 22.4661 18.5745L22.4982 18.7677L22.1407 18.4472C21.8199 18.1618 20.8851 17.446 20.8851 17.4899C20.8851 17.5206 21.38 18.3769 21.7054 18.917C22.1224 19.6108 22.2645 19.8787 22.4203 20.2871C22.5348 20.5901 22.544 20.6515 22.5165 21.0555C22.4569 22.0479 22.072 23.115 21.4579 23.9976C21.1463 24.4455 20.798 24.8231 20.7934 24.7089C20.7934 24.6694 20.8667 23.9449 20.9538 23.1062C21.2104 20.6515 21.2104 20.6296 21.16 20.3705C21.0546 19.8436 20.6055 19.3078 20.0968 19.1015L19.854 19.0049L19.8494 18.4077C19.8448 17.749 19.7669 17.2396 19.5744 16.6205C19.5057 16.4009 19.4415 16.1857 19.4323 16.133C19.414 16.0584 19.4782 16.0013 19.7715 15.8213C19.9685 15.6983 20.2435 15.5183 20.381 15.4173C20.5184 15.3207 20.6468 15.2373 20.6605 15.2373C20.6788 15.2373 20.8026 15.3514 20.9309 15.4875ZM10.4961 18.636C10.6152 18.7677 10.7114 18.8863 10.7114 18.8995C10.7114 18.9126 10.5144 18.9258 10.2761 18.9258C10.0378 18.9258 9.84073 18.9126 9.84073 18.8995C9.84073 18.8643 10.2257 18.3989 10.2532 18.3989C10.2669 18.3989 10.3723 18.5087 10.4961 18.636ZM13.649 18.8029L13.7406 18.9258H13.2823C13.0257 18.9258 12.8195 18.917 12.8195 18.9039C12.8195 18.8951 12.9295 18.7721 13.0578 18.636L13.3007 18.3901L13.429 18.5394C13.5023 18.6184 13.5986 18.737 13.649 18.8029ZM19.6706 19.9182C20.0693 20.1246 20.2435 20.3881 20.2435 20.7877C20.2435 20.9194 20.1289 22.0523 19.9914 23.3038C19.854 24.5553 19.6798 26.1712 19.6019 26.8957C19.5286 27.6203 19.4507 28.2877 19.4369 28.3755L19.4094 28.5424H11.7655H4.12151L4.09401 28.358C4.08026 28.2526 3.98403 27.3788 3.88321 26.4127C3.78239 25.4467 3.61741 23.8746 3.51201 22.9217C3.26454 20.6032 3.26454 20.4759 3.5395 20.1641C3.69531 19.9885 3.87862 19.8919 4.15359 19.8479C4.26815 19.8304 7.76935 19.8172 11.9259 19.8216L19.4873 19.826L19.6706 19.9182ZM20.8988 29.5655C20.8255 29.9607 20.5139 30.2769 20.1381 30.3472C19.8448 30.3999 3.58533 30.3955 3.33328 30.3384C2.9575 30.2549 2.70087 29.9827 2.62754 29.5831L2.59546 29.4206H11.7609H20.9263L20.8988 29.5655Z" fill="#3CA0AE"/>
<path d="M6.8482 9.00182C6.27536 9.07208 5.66128 9.51119 5.41381 10.0293C4.97387 10.9515 5.38174 12.0273 6.33952 12.4752C6.64198 12.6157 6.68323 12.6245 7.15983 12.6245C7.61352 12.6245 7.69142 12.6113 7.92972 12.506C8.27343 12.3523 8.69045 11.9658 8.84627 11.6629C9.36411 10.6485 8.87834 9.44094 7.81057 9.08965C7.50811 8.98865 7.18274 8.9623 6.8482 9.00182ZM8.0672 10.0118C8.55755 10.3806 8.03971 11.0788 7.50353 10.7715C7.20107 10.6046 7.20107 10.205 7.50353 9.98105C7.61352 9.89322 7.93431 9.91079 8.0672 10.0118Z" fill="#3CA0AE"/>
<path d="M15.7937 9.06333C15.4637 9.18629 15.2575 9.30924 15.0467 9.51123C14.1256 10.407 14.3822 11.9044 15.5508 12.4577C16.3344 12.8265 17.2464 12.6553 17.8238 12.0361C18.6487 11.1491 18.3508 9.69566 17.228 9.16872C16.9531 9.03699 16.8843 9.02381 16.4398 9.01503C16.119 9.00625 15.9036 9.02381 15.7937 9.06333ZM17.2464 10.0733C17.4755 10.2929 17.448 10.5871 17.1731 10.7891C17.0631 10.8769 16.7423 10.8593 16.6094 10.7583C16.2382 10.4773 16.4398 9.924 16.9118 9.924C17.0539 9.924 17.1226 9.95473 17.2464 10.0733Z" fill="#3CA0AE"/>
<path d="M11.4539 11.9C10.9498 12.001 10.6244 12.3347 10.5327 12.8353C10.4777 13.1515 10.519 13.5862 10.6381 13.9111C10.8215 14.4117 11.2935 15.0836 11.628 15.3163L11.7701 15.4173L11.9305 15.3031C12.32 15.0177 12.8378 14.1834 12.9616 13.6521C13.0441 13.27 12.9982 12.7167 12.8562 12.4489C12.792 12.3259 12.7004 12.1942 12.65 12.1547C12.4071 11.9439 11.8388 11.8253 11.4539 11.9Z" fill="#3CA0AE"/>
<path d="M12.1413 21.9206C12.0405 22.0304 10.6198 26.0175 10.6198 26.2019C10.6198 26.2634 10.6794 26.3644 10.7527 26.4391C10.9269 26.6015 11.156 26.6147 11.3118 26.461C11.4539 26.3249 12.8837 22.2367 12.8378 22.105C12.7691 21.9206 12.627 21.824 12.43 21.824C12.2925 21.824 12.2146 21.8503 12.1413 21.9206Z" fill="#3CA0AE"/>
<path d="M9.70324 22.689C9.54284 22.7944 8.24593 23.8263 8.06721 23.9888C7.92056 24.1206 7.87932 24.2699 7.94347 24.4323C7.96639 24.4894 9.22663 25.5213 9.62991 25.8067C9.89113 25.9956 10.2577 25.8858 10.3219 25.596C10.3677 25.4072 10.2852 25.3106 9.61158 24.7792C9.28163 24.5201 9.01583 24.2962 9.01583 24.2786C9.01583 24.2611 9.29537 24.0239 9.63449 23.7561C9.97362 23.4882 10.2715 23.2292 10.299 23.1852C10.3815 23.0359 10.3494 22.8779 10.2119 22.7417C10.0561 22.5968 9.8728 22.5749 9.70324 22.689Z" fill="#3CA0AE"/>
<path d="M13.4107 22.6802C13.2457 22.7681 13.1724 22.9744 13.2457 23.1457C13.2778 23.2203 13.5482 23.4662 13.8965 23.7473C14.2264 24.0064 14.4968 24.2391 14.506 24.261C14.5105 24.2874 14.231 24.5333 13.8873 24.8099C13.2732 25.3017 13.2549 25.3237 13.2411 25.5037C13.2228 25.7409 13.374 25.9077 13.6169 25.9077C13.7544 25.9077 13.8873 25.8199 14.6159 25.2447C15.0788 24.8802 15.4912 24.5421 15.5371 24.4938C15.5783 24.4455 15.615 24.3401 15.615 24.261C15.615 24.0854 15.5325 24.0064 14.4968 23.1896C13.7315 22.588 13.6582 22.5529 13.4107 22.6802Z" fill="#3CA0AE"/>
</svg>
