<svg width="39" height="52" viewBox="0 0 39 52" fill="none" xmlns="http://www.w3.org/2000/svg">
<path d="M1.62086 0.463814C0.906758 2.14068 0.861177 3.79614 1.49171 5.20899C2.08427 6.54335 3.201 7.60655 4.75835 8.32725C5.16098 8.51991 5.50284 8.67689 5.51804 8.69116C5.54083 8.6983 5.28253 8.96945 4.94827 9.29769C3.96069 10.2539 3.51247 10.9103 2.93511 12.2732C2.59326 13.0867 2.58566 13.0938 2.26659 13.1937C1.83357 13.3222 1.71202 13.5148 1.71962 14.0999C1.71962 14.6494 1.85636 14.9134 2.14504 14.9134C2.30458 14.9134 2.33496 14.9419 2.30458 15.0704C2.16024 15.7055 2.10706 16.0551 2.03109 16.84C1.83357 18.8665 2.33496 21.2855 3.24658 22.784C3.4517 23.1265 3.62642 23.4333 3.62642 23.4619C3.62642 23.4904 3.4441 23.7259 3.2162 23.997C2.17543 25.2172 1.2942 26.7656 0.777612 28.257C-0.437881 31.7891 -0.22517 35.4925 1.39296 38.6607C2.16783 40.1948 3.27697 41.5791 4.37851 42.3855C4.77355 42.678 4.91029 42.8279 4.91789 42.9563C4.92548 43.0562 5.00145 43.8554 5.09261 44.7402L5.25974 46.3457L4.24936 46.3814C3.23899 46.4171 3.23139 46.4171 3.04147 46.624C2.85914 46.831 2.85155 46.8595 2.88193 47.73C2.90473 48.5649 2.91992 48.6648 3.14782 49.1072C3.57325 49.9563 4.4013 50.5629 5.3661 50.7341C5.58641 50.7698 6.68795 50.8055 7.80468 50.8055H9.83304L9.88622 51.0909C9.98497 51.6974 10.6687 52.1042 11.3144 51.94C11.7322 51.8401 12.1197 51.4548 12.1805 51.0838L12.2336 50.8055H12.6363H13.0465V51.0338C13.0465 51.4762 13.4263 51.883 13.9353 51.9829C14.5659 52.1042 15.3255 51.5619 15.3255 50.9839V50.8055H19.4962H23.6593L23.7125 51.0909C23.8492 51.9186 25.0191 52.2754 25.5965 51.6689C25.8016 51.4548 25.9915 50.9767 25.9155 50.8626C25.8927 50.834 26.0827 50.8055 26.3334 50.8055C26.7892 50.8055 26.7968 50.8055 26.7968 51.0124C26.7968 51.2479 27.0475 51.6189 27.3437 51.833C27.6324 52.0257 28.2402 52.0257 28.5288 51.833C28.8251 51.6189 29.0758 51.2479 29.0758 51.0124V50.8055H31.1194C32.2361 50.8055 33.3452 50.7698 33.5655 50.7341C34.5683 50.5557 35.4116 49.9349 35.8598 49.0359C36.0801 48.6006 36.1029 48.4793 36.1257 47.6872L36.1561 46.8167L35.9282 46.5955L35.7003 46.3814H34.7431C34.029 46.3814 33.7859 46.36 33.7859 46.2886C33.7859 46.2458 33.8618 45.4395 33.953 44.5047L34.1201 42.7993L34.7203 42.3284C38.5795 39.2744 40.038 33.4089 38.23 28.2142C37.721 26.7514 36.7334 25.046 35.723 23.9043C35.5331 23.6902 35.3812 23.4833 35.3812 23.4547C35.3812 23.419 35.4496 23.3049 35.5331 23.1978C35.8142 22.8268 36.2776 21.8706 36.5055 21.1927C36.8398 20.208 36.9841 19.3803 37.0297 18.1244C37.0677 17.0826 37.0145 16.4547 36.779 15.1774C36.7334 14.9419 36.7486 14.9134 36.8854 14.9134C37.1512 14.9134 37.2804 14.6494 37.2804 14.0928C37.2804 13.4934 37.174 13.3079 36.7562 13.2009C36.4675 13.1295 36.4599 13.1152 36.1105 12.2804C35.6243 11.1101 35.0393 10.2539 34.1657 9.40472L33.444 8.70543L34.0745 8.42001C37.0145 7.09992 38.4351 4.58819 37.8198 1.81958C37.6678 1.12743 37.2348 0 37.1285 0C37.0905 0 37.0221 0.135574 36.9765 0.299694C36.5815 1.79817 35.5483 3.06831 33.915 4.08156C33.0869 4.58819 32.2361 4.98065 30.4357 5.6728L29.1062 6.18657L28.4985 5.90114C26.5005 4.95211 24.2518 4.25282 22.2539 3.95312C21.2359 3.79614 18.8049 3.73906 17.7337 3.84609C15.5155 4.07443 13.5023 4.62387 10.9422 5.72275L9.9318 6.15802L8.65553 5.6728C5.40408 4.43834 3.93789 3.53926 2.85914 2.11214C2.4945 1.62691 2.09186 0.777779 1.99311 0.264015C1.96272 0.121304 1.90954 0 1.87915 0C1.84877 0 1.72722 0.206932 1.62086 0.463814ZM21.9728 5.56577C23.0895 5.74416 24.1835 6.00817 25.0723 6.30787C26.3486 6.73601 27.2146 7.1356 26.8651 7.1356C26.736 7.1356 25.5205 7.94906 24.9507 8.41287C23.9024 9.26915 23.1199 10.2895 22.7249 11.3171C22.6261 11.5668 22.5653 11.7737 22.5805 11.7737C22.6033 11.7737 22.8996 11.5454 23.2414 11.2671C24.7836 10.0184 26.4321 9.27628 28.1262 9.06221C30.542 8.76252 33.1401 10.0184 34.2341 12.0021C34.3632 12.2376 34.4468 12.4588 34.424 12.4944C34.4012 12.5301 32.6311 12.5587 30.4205 12.5587C26.341 12.5587 25.2394 12.6086 23.9707 12.8512C22.5805 13.1081 21.988 13.4363 21.5398 14.1784C21.365 14.471 21.2739 14.5495 21.1827 14.5138C20.9624 14.4282 18.7897 14.3996 18.2123 14.4781C17.9009 14.5138 17.635 14.5281 17.6198 14.4924C17.521 14.2213 17.05 13.629 16.7917 13.4435C15.7814 12.7228 14.3076 12.5658 8.64033 12.5587C6.43725 12.5587 4.61401 12.5373 4.59122 12.5087C4.43929 12.3731 5.49525 10.9317 6.0726 10.4822C7.37166 9.47608 8.60995 9.04794 10.1597 9.04794C12.0285 9.04794 13.8518 9.77577 15.7358 11.2671C16.1384 11.5882 16.4651 11.8166 16.4651 11.7809C16.4651 11.5597 15.9789 10.5036 15.6674 10.0469C15.1584 9.30482 14.0113 8.27016 13.0085 7.64223C12.5527 7.3568 12.1577 7.10706 12.1425 7.09279C12.0741 7.0357 13.4947 6.46486 14.4519 6.16516C15.5914 5.81551 16.9741 5.53723 18.0604 5.43019C19.0632 5.33029 20.932 5.40165 21.9728 5.56577ZM14.4519 14.05C15.3939 14.2498 15.7662 14.3996 16.0321 14.6922C16.3511 15.049 16.4119 15.3986 16.3663 16.5903C16.3055 18.3599 15.8649 19.5159 14.9077 20.472C14.262 21.1071 13.7758 21.3426 12.5907 21.5567C11.4436 21.7707 9.34684 21.7921 8.53398 21.5995C6.59679 21.1428 5.65478 20.0154 5.21416 17.6249C4.98626 16.3905 4.94068 15.1703 5.10021 14.7279C5.23695 14.3354 5.51044 14.05 5.86749 13.9287C6.02702 13.8716 7.2881 13.8573 9.89381 13.8716C13.4947 13.893 13.7302 13.9002 14.4519 14.05ZM33.1249 13.943C33.7934 14.1713 34.0062 14.578 34.0138 15.6056C34.0138 17.6963 33.3832 19.7942 32.4944 20.629C31.5448 21.521 29.7595 21.9063 27.4881 21.6994C26.4929 21.6066 25.3154 21.3569 24.89 21.1499C24.4721 20.9501 23.7428 20.2009 23.4466 19.6586C22.8692 18.6096 22.6641 17.7248 22.6565 16.2692C22.6565 15.3487 22.6793 15.1275 22.7856 14.9348C23.0363 14.5138 23.4921 14.2783 24.4797 14.0643C25.2318 13.9002 26.1282 13.8645 29.4557 13.8573C32.1297 13.8502 32.897 13.8716 33.1249 13.943ZM20.461 15.9909C20.8333 16.0836 21.1751 16.3976 21.1751 16.6545C21.1751 16.9542 21.4182 18.1601 21.6005 18.7666C21.7069 19.102 21.9652 19.7085 22.1779 20.1224C22.5122 20.7575 22.6717 20.9644 23.2263 21.4853C23.7504 21.9919 23.9859 22.156 24.5177 22.3915C24.8748 22.5556 25.4141 22.7483 25.7256 22.8268C27.4197 23.2621 29.9722 23.1836 31.4308 22.6413C33.1705 21.9919 34.4544 20.5006 35.0013 18.4883C35.1837 17.8105 35.3812 16.7615 35.3812 16.419C35.3888 16.1907 35.3964 16.1764 35.4724 16.3048C35.5331 16.3976 35.5635 16.8686 35.5559 17.6606C35.5559 18.6239 35.5179 19.0235 35.3888 19.6015C35.1229 20.8074 34.6975 21.7707 34.0669 22.6555C32.6615 24.5964 29.8659 25.8451 27.1538 25.7453C26.7892 25.7381 26.4929 25.7381 26.4929 25.7595C26.4929 25.8451 27.1766 26.1877 27.7084 26.3732C28.2174 26.5444 28.3997 26.573 29.4101 26.5944C30.0254 26.6087 30.5648 26.6301 30.5952 26.6515C30.7015 26.7086 31.0966 27.836 31.2105 28.364C31.2637 28.6352 31.3093 29.2774 31.3169 29.7911V30.7188L29.9191 30.7402C28.7416 30.7544 28.5364 30.7402 28.5668 30.6545C28.7112 30.3049 28.7871 29.5985 28.7492 28.9848C28.7036 28.2855 28.5288 27.5577 28.4453 27.7575C28.4301 27.8146 28.3161 28.1071 28.2098 28.3997C27.9439 29.1061 27.5792 29.7055 27.4577 29.6342C27.4045 29.6056 27.093 29.4058 26.7588 29.1917C25.9687 28.6851 23.91 27.4721 23.91 27.5149C23.91 27.5791 24.5405 28.4354 24.852 28.7922C25.0267 28.9848 25.5129 29.4986 25.9459 29.9338L26.7284 30.7188L25.4977 30.7402C24.305 30.7544 24.2594 30.7544 24.0771 30.5975C23.8036 30.3548 23.0135 29.3844 22.4514 28.5995L21.9576 27.9073L21.6993 28.2713C21.0915 29.1561 19.7241 30.6117 19.5038 30.6117C19.2911 30.6117 17.9844 29.2203 17.3159 28.2713L17.05 27.9002L16.8601 28.1999C16.5714 28.6637 15.5155 30.0337 15.1508 30.4191L14.8318 30.7616L13.5935 30.7402L12.3552 30.7188L13.2364 29.8268C13.9657 29.0918 15.0976 27.6861 15.0976 27.522C15.0976 27.4721 14.5963 27.7646 12.9174 28.8064C12.1425 29.2916 11.474 29.6627 11.436 29.6413C11.3144 29.5699 10.7978 28.4996 10.6459 28.0072L10.5168 27.5791L10.4104 27.9359C10.1901 28.6923 10.2053 30.0837 10.4408 30.6545C10.4712 30.7402 10.2509 30.7544 9.11134 30.7544C7.93383 30.7544 7.73631 30.7402 7.69833 30.6403C7.62996 30.469 7.64515 29.5057 7.72871 28.8992C7.82747 28.1856 8.07057 27.3151 8.29088 26.9226L8.46561 26.6015L9.40761 26.6087C10.4864 26.6229 10.9498 26.5302 11.8538 26.1377C12.7502 25.7453 12.735 25.7167 11.5423 25.7238C10.38 25.7238 9.76467 25.6311 8.79227 25.31C5.89788 24.3609 4.1582 22.3844 3.61883 19.4231C3.46689 18.5811 3.42891 17.1183 3.54286 16.4832L3.59604 16.1621L3.65681 16.5903C4.1582 20.1866 5.6092 22.156 8.26049 22.8268C9.77986 23.2121 11.755 23.2121 13.2744 22.8268C15.2344 22.3344 16.5638 21.1142 17.2779 19.1591C17.5134 18.5169 17.7337 17.5821 17.7945 16.9471C17.8629 16.3191 17.9692 16.155 18.4251 16.0266C18.8581 15.8981 19.99 15.8838 20.461 15.9909ZM5.26734 25.0888C5.51044 25.2743 5.97385 25.5597 6.29291 25.7381L6.87027 26.0521L6.66516 26.6729C6.25493 27.8574 5.99664 29.5414 6.0802 30.4405L6.12578 30.8686L5.69276 31.0684C4.83432 31.468 4.37091 31.9461 4.08983 32.7381C3.99867 32.9807 3.9303 33.3518 3.9303 33.5659C3.9303 33.887 4.43929 38.9747 4.57603 40.0236L4.61401 40.3447L4.38611 40.1378C4.00627 39.7952 3.25418 38.7463 2.85914 38.0113C2.22861 36.8411 1.81078 35.4568 1.68923 34.1653C1.64365 33.7371 1.66644 33.5373 1.7652 33.2376C1.99311 32.6097 2.36535 31.889 3.02627 30.8115C3.85433 29.47 4.3937 28.521 4.34812 28.4853C4.30254 28.4425 3.12503 29.3059 2.35775 29.9481C2.0159 30.2335 1.71962 30.469 1.70443 30.469C1.65125 30.469 1.89435 29.5699 2.16024 28.7922C2.45651 27.9216 2.9731 26.8941 3.49728 26.1448C3.84673 25.6454 4.652 24.7605 4.75835 24.7605C4.78874 24.7605 5.01664 24.9104 5.26734 25.0888ZM34.6975 25.1673C35.9282 26.4588 36.9309 28.4211 37.2424 30.1836L37.2956 30.4976L36.703 29.9767C36.1713 29.5128 34.6215 28.3497 34.6215 28.4211C34.6215 28.4711 35.442 29.8625 35.9813 30.7402C36.6726 31.8676 36.9081 32.3029 37.1664 32.9665C37.3564 33.4588 37.3716 33.5587 37.326 34.2152C37.2272 35.8279 36.5891 37.5618 35.5711 38.9961C35.0545 39.7239 34.4772 40.3376 34.4696 40.152C34.4696 40.0878 34.5911 38.9104 34.7355 37.5475C35.1609 33.5587 35.1609 33.5231 35.0773 33.1021C34.9026 32.2458 34.1581 31.3752 33.3148 31.0399L32.9122 30.8829L32.9046 29.9124C32.897 28.8421 32.7679 28.0144 32.4488 27.0083C32.3349 26.6515 32.2285 26.3018 32.2133 26.2162C32.1829 26.0949 32.2893 26.0021 32.7755 25.7096C33.1021 25.5098 33.5579 25.2172 33.7859 25.0531C34.0138 24.8961 34.2265 24.7605 34.2493 24.7605C34.2796 24.7605 34.4848 24.9461 34.6975 25.1673ZM17.3995 30.2835C17.597 30.4976 17.7565 30.6902 17.7565 30.7116C17.7565 30.733 17.4299 30.7544 17.0348 30.7544C16.6398 30.7544 16.3131 30.733 16.3131 30.7116C16.3131 30.6545 16.9513 29.8982 16.9969 29.8982C17.0196 29.8982 17.1944 30.0766 17.3995 30.2835ZM22.6261 30.5546L22.778 30.7544H22.0184C21.5929 30.7544 21.2511 30.7402 21.2511 30.7188C21.2511 30.7045 21.4334 30.5047 21.6461 30.2835L22.0487 29.8839L22.2615 30.1265C22.383 30.2549 22.5425 30.4476 22.6261 30.5546ZM32.6083 32.3671C33.2693 32.7025 33.5579 33.1306 33.5579 33.7799C33.5579 33.994 33.368 35.835 33.1401 37.8686C32.9122 39.9023 32.6235 42.5282 32.4944 43.7056C32.3728 44.8829 32.2437 45.9675 32.2209 46.1103L32.1753 46.3814H19.5038H6.83229L6.78671 46.0817C6.76392 45.9105 6.60438 44.4905 6.43725 42.9206C6.27012 41.3508 5.99664 38.7963 5.82191 37.2478C5.41168 33.4802 5.41168 33.2733 5.86749 32.7667C6.12578 32.4813 6.42966 32.3243 6.88547 32.2529C7.07539 32.2244 12.8794 32.203 19.7697 32.2101L32.3045 32.2172L32.6083 32.3671ZM34.6443 48.044C34.5227 48.6862 34.0062 49.2 33.3832 49.3141C32.897 49.3998 5.94346 49.3926 5.52563 49.2999C4.90269 49.1643 4.47727 48.7219 4.35572 48.0725L4.30254 47.8085H19.4962H34.6899L34.6443 48.044Z" fill="#9F4325"/>
<path d="M11.3524 14.628C10.4028 14.7421 9.38483 15.4557 8.9746 16.2977C8.2453 17.7962 8.92142 19.5444 10.5092 20.2722C11.0105 20.5006 11.0789 20.5148 11.869 20.5148C12.6211 20.5148 12.7502 20.4934 13.1453 20.3222C13.715 20.0724 14.4063 19.4445 14.6646 18.9521C15.5231 17.3038 14.7178 15.3415 12.9477 14.7707C12.4463 14.6066 11.907 14.5637 11.3524 14.628ZM13.3732 16.2691C14.186 16.8685 13.3276 18.0031 12.4388 17.5036C11.9374 17.2325 11.9374 16.5831 12.4388 16.2192C12.6211 16.0765 13.1529 16.105 13.3732 16.2691Z" fill="#9F4325"/>
<path d="M26.1814 14.7279C25.6345 14.9277 25.2926 15.1275 24.9431 15.4557C23.4162 16.9114 23.8416 19.3446 25.7788 20.2437C27.0779 20.8431 28.5896 20.5648 29.5468 19.5587C30.9143 18.1173 30.4205 15.7554 28.5592 14.8991C28.1034 14.6851 27.9895 14.6637 27.2526 14.6494C26.7208 14.6351 26.3638 14.6637 26.1814 14.7279ZM28.5896 16.3691C28.9695 16.7258 28.9239 17.2039 28.4681 17.5322C28.2858 17.6749 27.754 17.6463 27.5337 17.4822C26.9183 17.0255 27.2526 16.1265 28.0351 16.1265C28.2706 16.1265 28.3845 16.1764 28.5896 16.3691Z" fill="#9F4325"/>
<path d="M18.9872 19.3375C18.1516 19.5016 17.6122 20.0439 17.4603 20.8574C17.3691 21.3711 17.4375 22.0776 17.635 22.6056C17.9389 23.419 18.7213 24.5108 19.2759 24.889L19.5114 25.0531L19.7773 24.8676C20.423 24.4038 21.2815 23.048 21.4866 22.1846C21.6233 21.5638 21.5474 20.6647 21.3119 20.2294C21.2055 20.0296 21.0536 19.8156 20.97 19.7513C20.5674 19.4088 19.6254 19.2162 18.9872 19.3375Z" fill="#9F4325"/>
<path d="M20.1267 35.6209C19.9596 35.7993 17.6046 42.2784 17.6046 42.5781C17.6046 42.678 17.7034 42.8422 17.8249 42.9635C18.1136 43.2275 18.4934 43.2489 18.7517 42.9991C18.9872 42.7779 21.3574 36.1347 21.2815 35.9206C21.1675 35.6209 20.932 35.4639 20.6053 35.4639C20.3774 35.4639 20.2483 35.5068 20.1267 35.6209Z" fill="#9F4325"/>
<path d="M16.0852 36.8697C15.8193 37.0409 13.6694 38.7178 13.3732 38.9818C13.1301 39.1959 13.0617 39.4385 13.168 39.7025C13.206 39.7952 15.2952 41.4721 15.9637 41.9359C16.3967 42.2428 17.0044 42.0644 17.1108 41.5934C17.1868 41.2866 17.05 41.1296 15.9333 40.2662C15.3863 39.8452 14.9457 39.4813 14.9457 39.4527C14.9457 39.4242 15.4091 39.0389 15.9713 38.6036C16.5334 38.1683 17.0272 37.7473 17.0728 37.676C17.2096 37.4334 17.1564 37.1765 16.9285 36.9553C16.6702 36.7198 16.3663 36.6841 16.0852 36.8697Z" fill="#9F4325"/>
<path d="M22.2311 36.8554C21.9576 36.9981 21.836 37.3335 21.9576 37.6117C22.0108 37.733 22.459 38.1326 23.0363 38.5893C23.5833 39.0103 24.0315 39.3885 24.0467 39.4242C24.0543 39.467 23.5909 39.8666 23.0211 40.3161C22.0032 41.1153 21.9728 41.151 21.95 41.4436C21.9196 41.8289 22.1703 42.1 22.5729 42.1C22.8008 42.1 23.0211 41.9573 24.229 41.0226C24.9963 40.4303 25.68 39.8809 25.756 39.8024C25.8244 39.7239 25.8851 39.5526 25.8851 39.4242C25.8851 39.1388 25.7484 39.0103 24.0315 37.6831C22.7628 36.7055 22.6413 36.6484 22.2311 36.8554Z" fill="#9F4325"/>
</svg>
